<svg width="156" height="28" viewBox="0 0 156 28" fill="none" xmlns="http://www.w3.org/2000/svg">
<path d="M13.3472 18.468C12.9739 18.468 12.6006 18.328 12.3206 18.048L11.5623 17.2897C11.2239 16.9514 11.2239 16.3914 11.5623 16.053C11.9006 15.7147 12.4606 15.7147 12.7989 16.053L13.3589 16.613L15.2372 14.8864C15.5872 14.5597 16.1472 14.583 16.4739 14.933C16.8006 15.283 16.7772 15.843 16.4272 16.1697L14.3506 18.083C14.0589 18.3397 13.7089 18.468 13.3472 18.468Z" fill="white"/>
<path d="M18.6672 26.5417H9.33392C3.94392 26.5417 2.94059 24.0334 2.68392 21.5951L1.80892 12.2501C1.68059 11.0251 1.64559 9.21672 2.85892 7.86339C3.90892 6.69672 5.64726 6.13672 8.16726 6.13672H19.8339C22.3656 6.13672 24.1039 6.70838 25.1422 7.86339C26.3556 9.21672 26.3206 11.0251 26.1922 12.2617L25.3172 21.5834C25.0606 24.0334 24.0572 26.5417 18.6672 26.5417ZM8.16726 7.87505C6.19559 7.87505 4.84226 8.26005 4.15392 9.03005C3.58226 9.66005 3.39559 10.6284 3.54726 12.0751L4.42226 21.4201C4.62059 23.2634 5.12226 24.7917 9.33392 24.7917H18.6672C22.8672 24.7917 23.3806 23.2634 23.5789 21.4084L24.4539 12.0867C24.6056 10.6284 24.4189 9.66005 23.8472 9.03005C23.1589 8.26005 21.8056 7.87505 19.8339 7.87505H8.16726Z" fill="white"/>
<path d="M18.6672 7.87467C18.1889 7.87467 17.7922 7.47801 17.7922 6.99967V6.06634C17.7922 3.98967 17.7922 3.20801 14.9339 3.20801H13.0672C10.2089 3.20801 10.2089 3.98967 10.2089 6.06634V6.99967C10.2089 7.47801 9.81226 7.87467 9.33393 7.87467C8.85559 7.87467 8.45893 7.47801 8.45893 6.99967V6.06634C8.45893 4.01301 8.45893 1.45801 13.0672 1.45801H14.9339C19.5422 1.45801 19.5422 4.01301 19.5422 6.06634V6.99967C19.5422 7.47801 19.1456 7.87467 18.6672 7.87467Z" fill="white"/>
<path d="M18.6789 16.7881C18.2822 16.7881 17.9322 16.5198 17.8272 16.1231C17.7106 15.6564 17.9906 15.1781 18.4572 15.0614C20.7322 14.4898 22.8439 13.4981 24.7339 12.1214C25.1189 11.8414 25.6672 11.9231 25.9589 12.3198C26.2389 12.7048 26.1572 13.2531 25.7606 13.5448C23.6839 15.0498 21.3739 16.1348 18.8772 16.7648C18.8189 16.7764 18.7489 16.7881 18.6789 16.7881Z" fill="white"/>
<path d="M9.33418 16.8233C9.26418 16.8233 9.19418 16.8117 9.12418 16.8C6.77918 16.2283 4.57418 15.2367 2.55584 13.86C2.15918 13.5917 2.05418 13.0433 2.32251 12.6467C2.59084 12.25 3.13918 12.145 3.53584 12.4133C5.37918 13.6733 7.38584 14.5717 9.53251 15.0967C9.99918 15.2133 10.2908 15.68 10.1742 16.1583C10.0925 16.555 9.73084 16.8233 9.33418 16.8233Z" fill="white"/>
<path d="M46.0371 21L41.9258 9.07617H41.8379C41.8574 9.3431 41.8802 9.70768 41.9062 10.1699C41.9323 10.6322 41.9551 11.127 41.9746 11.6543C41.9941 12.1816 42.0039 12.6862 42.0039 13.168V21H39.875V6.72266H43.166L47.1211 18.1191H47.1797L51.2715 6.72266H54.5527V21H52.3164V13.0508C52.3164 12.6146 52.3229 12.1426 52.3359 11.6348C52.3555 11.127 52.375 10.6452 52.3945 10.1895C52.4206 9.73372 52.4401 9.36914 52.4531 9.0957H52.375L48.1074 21H46.0371ZM67.6484 15.5703C67.6484 16.4688 67.5312 17.2663 67.2969 17.9629C67.0625 18.6595 66.7207 19.2487 66.2715 19.7305C65.8223 20.2057 65.2819 20.5703 64.6504 20.8242C64.0189 21.0716 63.306 21.1953 62.5117 21.1953C61.7695 21.1953 61.0892 21.0716 60.4707 20.8242C59.8522 20.5703 59.3151 20.2057 58.8594 19.7305C58.4102 19.2487 58.0618 18.6595 57.8145 17.9629C57.5671 17.2663 57.4434 16.4688 57.4434 15.5703C57.4434 14.3789 57.6484 13.3698 58.0586 12.543C58.4753 11.7096 59.0677 11.0749 59.8359 10.6387C60.6042 10.2025 61.5189 9.98438 62.5801 9.98438C63.5762 9.98438 64.4551 10.2025 65.2168 10.6387C65.9785 11.0749 66.5742 11.7096 67.0039 12.543C67.4336 13.3763 67.6484 14.3854 67.6484 15.5703ZM59.8066 15.5703C59.8066 16.3581 59.901 17.0319 60.0898 17.5918C60.2852 18.1517 60.5846 18.5814 60.9883 18.8809C61.3919 19.1738 61.9128 19.3203 62.5508 19.3203C63.1888 19.3203 63.7096 19.1738 64.1133 18.8809C64.5169 18.5814 64.8132 18.1517 65.002 17.5918C65.1908 17.0319 65.2852 16.3581 65.2852 15.5703C65.2852 14.7826 65.1908 14.1152 65.002 13.5684C64.8132 13.015 64.5169 12.5951 64.1133 12.3086C63.7096 12.0156 63.1855 11.8691 62.541 11.8691C61.5905 11.8691 60.8971 12.1882 60.4609 12.8262C60.0247 13.4642 59.8066 14.3789 59.8066 15.5703ZM71.3691 21H68.8105L71.8281 16.5859C71.418 16.4557 71.0339 16.2637 70.6758 16.0098C70.3242 15.7493 70.0378 15.4108 69.8164 14.9941C69.5951 14.571 69.4844 14.0566 69.4844 13.4512C69.4844 12.3965 69.862 11.5892 70.6172 11.0293C71.3724 10.4694 72.3587 10.1895 73.5762 10.1895H78.4785V21H76.1836V16.8203H74.0059L71.3691 21ZM71.7305 13.4707C71.7305 14.0176 71.9355 14.4342 72.3457 14.7207C72.7559 15.0007 73.3158 15.1406 74.0254 15.1406H76.1836V11.918H73.6934C73.0098 11.918 72.5117 12.0677 72.1992 12.3672C71.8867 12.6602 71.7305 13.028 71.7305 13.4707ZM92.4922 9.98438C93.7747 9.98438 94.8034 10.4531 95.5781 11.3906C96.3594 12.3281 96.75 13.7214 96.75 15.5703C96.75 16.7943 96.5677 17.8262 96.2031 18.666C95.8451 19.4993 95.3405 20.1309 94.6895 20.5605C94.0449 20.9837 93.293 21.1953 92.4336 21.1953C91.8867 21.1953 91.4115 21.1237 91.0078 20.9805C90.6042 20.8372 90.2591 20.6517 89.9727 20.4238C89.6862 20.1895 89.4453 19.9355 89.25 19.6621H89.1133C89.1458 19.9225 89.1751 20.2122 89.2012 20.5312C89.2337 20.8438 89.25 21.1302 89.25 21.3906V25.7949H86.9453V10.1895H88.8203L89.1426 11.6836H89.25C89.4518 11.3776 89.696 11.0944 89.9824 10.834C90.2754 10.5736 90.627 10.3685 91.0371 10.2188C91.4538 10.0625 91.9388 9.98438 92.4922 9.98438ZM91.877 11.8594C91.2454 11.8594 90.7376 11.9863 90.3535 12.2402C89.9759 12.4876 89.6992 12.862 89.5234 13.3633C89.3542 13.8646 89.263 14.4928 89.25 15.248V15.5703C89.25 16.3711 89.3314 17.0514 89.4941 17.6113C89.6634 18.1647 89.9401 18.5879 90.3242 18.8809C90.7148 19.1673 91.2422 19.3105 91.9062 19.3105C92.4661 19.3105 92.9284 19.1576 93.293 18.8516C93.6641 18.5456 93.9408 18.1094 94.123 17.543C94.3053 16.9766 94.3965 16.3092 94.3965 15.541C94.3965 14.3757 94.1882 13.4707 93.7715 12.8262C93.3613 12.1816 92.7298 11.8594 91.877 11.8594ZM103.645 9.98438C105.012 9.98438 106.044 10.2871 106.74 10.8926C107.443 11.498 107.795 12.4421 107.795 13.7246V21H106.164L105.725 19.4668H105.646C105.34 19.8574 105.025 20.1797 104.699 20.4336C104.374 20.6875 103.996 20.8763 103.566 21C103.143 21.1302 102.626 21.1953 102.014 21.1953C101.369 21.1953 100.793 21.0781 100.285 20.8438C99.7773 20.6029 99.377 20.2383 99.084 19.75C98.791 19.2617 98.6445 18.6432 98.6445 17.8945C98.6445 16.7812 99.0579 15.9447 99.8848 15.3848C100.718 14.8249 101.975 14.5156 103.654 14.457L105.529 14.3887V13.8223C105.529 13.0736 105.354 12.5397 105.002 12.2207C104.657 11.9017 104.169 11.7422 103.537 11.7422C102.997 11.7422 102.473 11.8203 101.965 11.9766C101.457 12.1328 100.962 12.3249 100.48 12.5527L99.7383 10.9316C100.266 10.6517 100.865 10.4238 101.535 10.248C102.212 10.0723 102.915 9.98438 103.645 9.98438ZM105.52 15.834L104.123 15.8828C102.977 15.9219 102.173 16.1172 101.711 16.4688C101.249 16.8203 101.018 17.3021 101.018 17.9141C101.018 18.4479 101.177 18.8385 101.496 19.0859C101.815 19.3268 102.235 19.4473 102.756 19.4473C103.55 19.4473 104.208 19.2227 104.729 18.7734C105.256 18.3177 105.52 17.6504 105.52 16.7715V15.834ZM110.393 14.5156C110.393 12.9466 110.565 11.612 110.91 10.5117C111.255 9.41146 111.799 8.5293 112.541 7.86523C113.283 7.20117 114.247 6.7487 115.432 6.50781C116.2 6.33203 116.981 6.18229 117.775 6.05859C118.57 5.9349 119.364 5.81445 120.158 5.69727L120.471 7.71875C120.1 7.76432 119.702 7.81966 119.279 7.88477C118.856 7.94336 118.43 8.00521 118 8.07031C117.577 8.13542 117.17 8.20378 116.779 8.27539C116.395 8.34049 116.05 8.4056 115.744 8.4707C115.132 8.60091 114.615 8.81576 114.191 9.11523C113.775 9.4082 113.449 9.83789 113.215 10.4043C112.98 10.9707 112.84 11.7259 112.795 12.6699H112.922C113.098 12.403 113.342 12.1361 113.654 11.8691C113.967 11.6022 114.344 11.3809 114.787 11.2051C115.236 11.0228 115.747 10.9316 116.32 10.9316C117.219 10.9316 117.98 11.1204 118.605 11.498C119.237 11.8757 119.715 12.4225 120.041 13.1387C120.373 13.8548 120.539 14.7174 120.539 15.7266C120.539 16.931 120.324 17.9401 119.895 18.7539C119.471 19.5612 118.879 20.1699 118.117 20.5801C117.355 20.9902 116.467 21.1953 115.451 21.1953C114.67 21.1953 113.967 21.0488 113.342 20.7559C112.723 20.4629 112.193 20.0332 111.75 19.4668C111.314 18.8939 110.979 18.194 110.744 17.3672C110.51 16.5339 110.393 15.5833 110.393 14.5156ZM115.607 19.3105C116.128 19.3105 116.577 19.1999 116.955 18.9785C117.339 18.7572 117.635 18.3991 117.844 17.9043C118.059 17.4095 118.166 16.7552 118.166 15.9414C118.166 14.9388 117.984 14.151 117.619 13.5781C117.261 12.9987 116.669 12.709 115.842 12.709C115.334 12.709 114.868 12.8229 114.445 13.0508C114.022 13.2786 113.664 13.5456 113.371 13.8516C113.078 14.151 112.87 14.4147 112.746 14.6426C112.746 15.235 112.788 15.8079 112.873 16.3613C112.964 16.9147 113.114 17.416 113.322 17.8652C113.537 18.3079 113.83 18.6595 114.201 18.9199C114.572 19.1803 115.041 19.3105 115.607 19.3105ZM132.746 15.5703C132.746 16.4688 132.629 17.2663 132.395 17.9629C132.16 18.6595 131.818 19.2487 131.369 19.7305C130.92 20.2057 130.38 20.5703 129.748 20.8242C129.117 21.0716 128.404 21.1953 127.609 21.1953C126.867 21.1953 126.187 21.0716 125.568 20.8242C124.95 20.5703 124.413 20.2057 123.957 19.7305C123.508 19.2487 123.16 18.6595 122.912 17.9629C122.665 17.2663 122.541 16.4688 122.541 15.5703C122.541 14.3789 122.746 13.3698 123.156 12.543C123.573 11.7096 124.165 11.0749 124.934 10.6387C125.702 10.2025 126.617 9.98438 127.678 9.98438C128.674 9.98438 129.553 10.2025 130.314 10.6387C131.076 11.0749 131.672 11.7096 132.102 12.543C132.531 13.3763 132.746 14.3854 132.746 15.5703ZM124.904 15.5703C124.904 16.3581 124.999 17.0319 125.188 17.5918C125.383 18.1517 125.682 18.5814 126.086 18.8809C126.49 19.1738 127.01 19.3203 127.648 19.3203C128.286 19.3203 128.807 19.1738 129.211 18.8809C129.615 18.5814 129.911 18.1517 130.1 17.5918C130.288 17.0319 130.383 16.3581 130.383 15.5703C130.383 14.7826 130.288 14.1152 130.1 13.5684C129.911 13.015 129.615 12.5951 129.211 12.3086C128.807 12.0156 128.283 11.8691 127.639 11.8691C126.688 11.8691 125.995 12.1882 125.559 12.8262C125.122 13.4642 124.904 14.3789 124.904 15.5703ZM143.547 11.9961H139.992V21H137.707V11.9961H134.172V10.1895H143.547V11.9961ZM149.875 9.98438C151.242 9.98438 152.274 10.2871 152.971 10.8926C153.674 11.498 154.025 12.4421 154.025 13.7246V21H152.395L151.955 19.4668H151.877C151.571 19.8574 151.255 20.1797 150.93 20.4336C150.604 20.6875 150.227 20.8763 149.797 21C149.374 21.1302 148.856 21.1953 148.244 21.1953C147.6 21.1953 147.023 21.0781 146.516 20.8438C146.008 20.6029 145.607 20.2383 145.314 19.75C145.021 19.2617 144.875 18.6432 144.875 17.8945C144.875 16.7812 145.288 15.9447 146.115 15.3848C146.949 14.8249 148.205 14.5156 149.885 14.457L151.76 14.3887V13.8223C151.76 13.0736 151.584 12.5397 151.232 12.2207C150.887 11.9017 150.399 11.7422 149.768 11.7422C149.227 11.7422 148.703 11.8203 148.195 11.9766C147.688 12.1328 147.193 12.3249 146.711 12.5527L145.969 10.9316C146.496 10.6517 147.095 10.4238 147.766 10.248C148.443 10.0723 149.146 9.98438 149.875 9.98438ZM151.75 15.834L150.354 15.8828C149.208 15.9219 148.404 16.1172 147.941 16.4688C147.479 16.8203 147.248 17.3021 147.248 17.9141C147.248 18.4479 147.408 18.8385 147.727 19.0859C148.046 19.3268 148.465 19.4473 148.986 19.4473C149.781 19.4473 150.438 19.2227 150.959 18.7734C151.486 18.3177 151.75 17.6504 151.75 16.7715V15.834Z" fill="white"/>
</svg>
